<?xml version="1.0" encoding="UTF-8"?>
<svg version="1.1" xmlns="http://www.w3.org/2000/svg" width="400" height="400">
<path d="M0 0 C1.1313713 -0.00724325 2.26274261 -0.01448649 3.42839789 -0.02194923 C7.1980626 -0.03878088 10.96618398 -0.01293528 14.73577881 0.01295471 C17.44671636 0.01305736 20.15760772 0.00415483 22.86853027 -0.00430298 C29.45337544 -0.01937933 36.03776637 -0.00256897 42.62255505 0.02524792 C50.29473179 0.05648744 57.96681182 0.0561871 65.6390402 0.05473018 C79.32763201 0.05323042 93.01601304 0.0806593 106.70452881 0.12428284 C119.9819116 0.16657409 133.259109 0.18779356 146.53656006 0.18580627 C147.35495118 0.18568641 148.17334231 0.18556654 149.01653317 0.18544304 C149.83352309 0.18532197 150.65051302 0.18520091 151.49226022 0.18507618 C166.62087284 0.18300622 181.74940688 0.20067488 196.87799402 0.22753583 C202.22433184 0.23657881 207.5706552 0.23977375 212.91699982 0.24113274 C219.4303256 0.24318008 225.9435188 0.2565877 232.45678833 0.28413116 C235.77912586 0.2979708 239.10114995 0.30552972 242.42353821 0.30334854 C246.02507989 0.30187867 249.62607365 0.31882052 253.22753906 0.34057617 C254.27714255 0.33593037 255.32674603 0.33128456 256.40815568 0.32649797 C262.87647786 0.39119038 267.41533309 1.10630219 272.40667725 5.57374573 C272.9687085 6.22730042 273.53073975 6.8808551 274.10980225 7.55421448 C274.682146 8.20003479 275.25448975 8.8458551 275.84417725 9.51124573 C279.82771173 15.37361219 279.62888396 21.35836562 279.55511475 28.17140198 C279.5508699 29.65690048 279.5508699 29.65690048 279.54653931 31.17240906 C279.53538695 34.32063624 279.51029132 37.46857397 279.48480225 40.61671448 C279.47476606 42.75733536 279.46564133 44.89796071 279.4574585 47.03858948 C279.43716945 52.27316443 279.39801099 57.50711724 279.35980225 62.74171448 C288.26980225 62.74171448 297.17980225 62.74171448 306.35980225 62.74171448 C306.35980225 174.28171448 306.35980225 285.82171448 306.35980225 400.74171448 C224.68480225 400.89640198 224.68480225 400.89640198 141.35980225 401.05421448 C115.54825928 401.12249451 115.54825928 401.12249451 89.215271 401.19215393 C68.24066162 401.21473694 68.24066162 401.21473694 58.42889404 401.21893311 C51.55999219 401.22360094 44.69129305 401.2419633 37.82244873 401.26959229 C29.90204749 401.30140396 21.98184106 401.31589779 14.06137544 401.30893923 C10.00904444 401.3059251 5.95714894 401.31072662 1.90489769 401.33779013 C-1.76067279 401.36212244 -5.42549986 401.36333261 -9.09110451 401.34622002 C-11.04183006 401.3430995 -12.99254712 401.36464852 -14.94314575 401.38711834 C-22.13503194 401.32589292 -27.12104971 400.56443278 -32.64019775 395.74171448 C-34.4800415 393.71437073 -34.4800415 393.71437073 -35.57769775 391.80421448 C-35.95797119 391.17644104 -36.33824463 390.5486676 -36.7300415 389.90187073 C-38.91720406 384.71087977 -38.78081422 379.16969425 -38.75372314 373.62501526 C-38.75386917 372.83409988 -38.7540152 372.04318451 -38.75416565 371.228302 C-38.75347264 368.63118179 -38.74570905 366.03413456 -38.737854 363.43702698 C-38.73598765 361.62956278 -38.73456477 359.82209807 -38.73356628 358.01463318 C-38.72975824 353.27014252 -38.71994264 348.52568273 -38.7088623 343.78120422 C-38.6986113 338.93471189 -38.69406077 334.08821454 -38.68902588 329.24171448 C-38.67831878 319.74170095 -38.661263 310.24171029 -38.64019775 300.74171448 C-39.87322632 301.49847473 -39.87322632 301.49847473 -41.13116455 302.27052307 C-44.19455165 304.14924636 -47.26102306 306.02288351 -50.32843018 307.89503479 C-51.65316477 308.70453191 -52.97706982 309.51538825 -54.30010986 310.32765198 C-56.20685483 311.49794449 -58.11657353 312.6632444 -60.0269165 313.82765198 C-60.6135759 314.18918365 -61.20023529 314.55071533 -61.80467224 314.92320251 C-65.00426804 316.86626105 -68.1534585 318.39737994 -71.64019775 319.74171448 C-72.30500147 283.97983232 -72.81547952 248.21903896 -73.12109231 212.45224259 C-73.15735974 208.22312091 -73.19489538 203.99401139 -73.23321533 199.76490784 C-73.24082233 198.92302313 -73.24842934 198.08113843 -73.25626685 197.21374207 C-73.38222336 183.60805621 -73.61072516 170.00594905 -73.87762884 156.40238155 C-74.14951308 142.42766 -74.31003933 128.4548026 -74.3687641 114.4775452 C-74.40488361 106.63149336 -74.49193819 98.79294735 -74.7063694 90.94957161 C-76.01216278 41.77428433 -76.01216278 41.77428433 -68.84371567 32.52550888 C-62.60692653 26.0769994 -54.7294553 23.22005321 -46.259161 20.89266777 C-40.5478597 19.07627987 -35.88012715 15.89206914 -30.95269775 12.55421448 C-28.66284263 11.10733066 -26.36289438 9.6792194 -24.05412966 8.26274395 C-22.48368614 7.27320035 -20.93588691 6.2464442 -19.41751122 5.17872483 C-12.848758 0.76717921 -7.81512706 -0.11587878 0 0 Z " fill="#186AFD" transform="translate(82.64019775390625,-0.7417144775390625)"/>
<path d="M0 0 C0.33 0 0.66 0 1 0 C1 14.85 1 29.7 1 45 C9.91 45 18.82 45 28 45 C28 156.54 28 268.08 28 383 C-53.675 383.1546875 -53.675 383.1546875 -137 383.3125 C-162.81154297 383.38078003 -162.81154297 383.38078003 -189.14453125 383.45043945 C-210.11914062 383.47302246 -210.11914062 383.47302246 -219.9309082 383.47721863 C-226.79981005 383.48188646 -233.6685092 383.50024882 -240.53735352 383.52787781 C-248.45775476 383.55968948 -256.37796119 383.57418331 -264.29842681 383.56722475 C-268.35075781 383.56421062 -272.40265331 383.56901214 -276.45490456 383.59607565 C-280.12047504 383.62040796 -283.7853021 383.62161813 -287.45090675 383.60450554 C-289.40163231 383.60138503 -291.35234936 383.62293404 -293.302948 383.64540386 C-300.49483419 383.58417845 -305.48085196 382.8227183 -311 378 C-312.83984375 375.97265625 -312.83984375 375.97265625 -313.9375 374.0625 C-314.31777344 373.43472656 -314.69804687 372.80695313 -315.08984375 372.16015625 C-317.25965223 367.01035329 -317.16065409 361.46821253 -317.19287109 355.96264648 C-317.20104858 355.17976257 -317.20922607 354.39687866 -317.21765137 353.590271 C-317.24232846 351.01721945 -317.25896884 348.44422209 -317.2734375 345.87109375 C-317.27876118 344.98919939 -317.28408485 344.10730503 -317.28956985 343.1986866 C-317.31621468 338.5374959 -317.33562365 333.87633128 -317.35009766 329.21508789 C-317.36347252 325.36133275 -317.39140219 321.50810263 -317.43212891 317.65454102 C-317.48139211 312.99211682 -317.50620916 308.33017098 -317.51332474 303.66749763 C-317.52003973 301.89365466 -317.53526832 300.11982249 -317.55921555 298.34612846 C-317.59080948 295.86616929 -317.59091429 293.38806627 -317.58349609 290.90795898 C-317.59990143 290.17795181 -317.61630676 289.44794464 -317.63320923 288.69581604 C-317.58505258 284.76067123 -317.13265009 283.15989013 -314.58485413 280.08889771 C-312.49298807 278.39839836 -310.58220809 276.95074305 -308.22265625 275.68359375 C-307.54396484 275.31169922 -306.86527344 274.93980469 -306.16601562 274.55664062 C-305.12477539 274.00266602 -305.12477539 274.00266602 -304.0625 273.4375 C-300.16992545 271.33311096 -296.3670114 269.24510656 -292.68359375 266.78515625 C-289.03184622 264.3559734 -286.43271747 263.87508386 -282.14867115 263.87695217 C-280.64010964 263.8739656 -280.64010964 263.8739656 -279.10107213 263.87091869 C-277.43912668 263.87528795 -277.43912668 263.87528795 -275.74360657 263.87974548 C-274.56906377 263.87889106 -273.39452096 263.87803663 -272.18438596 263.87715632 C-268.91889763 263.87579118 -265.65344874 263.87892717 -262.38796508 263.88393438 C-258.86855753 263.88824443 -255.34915188 263.88679206 -251.82974243 263.8860321 C-245.73035049 263.88550722 -239.63096923 263.8886503 -233.53157997 263.89426994 C-224.71283856 263.90238977 -215.89410232 263.90500066 -207.07535758 263.90625793 C-192.76825303 263.90844769 -178.46115419 263.91510572 -164.15405273 263.92456055 C-150.25431344 263.93373663 -136.35457569 263.94080504 -122.45483398 263.94506836 C-121.15700492 263.94547036 -121.15700492 263.94547036 -119.83295709 263.94588047 C-113.0665835 263.94795984 -106.30020988 263.94991678 -99.53383625 263.95183504 C-66.3558856 263.96127228 -33.17794921 263.98138974 0 264 C0 176.88 0 89.76 0 0 Z " fill="#0B3D90" transform="translate(361,17)"/>
<path d="M0 0 C0.22887665 35.55104083 0.40508994 71.10195251 0.51065329 106.65357837 C0.5231604 110.85051504 0.53610362 115.04745026 0.54931641 119.24438477 C0.55193951 120.07992073 0.55456261 120.91545669 0.55726521 121.77631193 C0.60078156 135.30624844 0.67962842 148.83576017 0.77152796 162.36544467 C0.86503574 176.2476543 0.92058599 190.12964144 0.94088495 204.01215309 C0.95460834 212.5790615 0.99795167 221.14476934 1.07916467 229.71130817 C1.13201617 235.58534951 1.1480036 241.45877004 1.13501377 247.3330319 C1.12860513 250.72346064 1.14389005 254.11010085 1.19205475 257.50044632 C1.2417452 261.17808877 1.22988496 264.85057641 1.20254517 268.52833557 C1.23167358 269.5974112 1.26080199 270.66648684 1.29081309 271.7679587 C1.2008007 276.24038561 1.08208782 278.91016011 -2.15397191 282.16940296 C-4.70030519 283.97943739 -7.25139251 285.51916273 -10 287 C-11.45017287 287.8712556 -12.89853593 288.74554337 -14.34375 289.625 C-16.41298227 290.81625895 -18.48950645 291.99404903 -20.56640625 293.171875 C-24.43910372 295.40139055 -28.13777018 297.75800641 -31.78125 300.34765625 C-37.36312323 304.31061436 -43.14879808 307.88847188 -49 311.4375 C-50.03511719 312.07365234 -51.07023437 312.70980469 -52.13671875 313.36523438 C-53.12285156 313.96529297 -54.10898437 314.56535156 -55.125 315.18359375 C-56.01445313 315.72556396 -56.90390625 316.26753418 -57.8203125 316.82592773 C-60 318 -60 318 -62 318 C-62.66480371 282.23811784 -63.17528176 246.47732448 -63.48089455 210.71052811 C-63.51716199 206.48140644 -63.55469763 202.25229691 -63.59301758 198.02319336 C-63.60062458 197.18130866 -63.60823158 196.33942395 -63.6160691 195.47202759 C-63.74202561 181.86634173 -63.97052741 168.26423458 -64.23743109 154.66066707 C-64.50931533 140.68594552 -64.66984158 126.71308812 -64.72856635 112.73583072 C-64.76468585 104.88977887 -64.85174084 97.05123289 -65.06617165 89.20785713 C-66.37187561 40.03506556 -66.37187561 40.03506556 -59.20553207 30.78480148 C-52.97151755 24.33673472 -45.09639369 21.48365734 -36.62900352 19.15597343 C-30.87377393 17.32271742 -26.15942698 14.10614948 -21.1875 10.75 C-19.5805911 9.73877884 -17.9705549 8.7324838 -16.35546875 7.734375 C-14.1494269 6.35955997 -11.95962016 4.97313377 -9.79541016 3.53320312 C-9.09593262 3.07365234 -8.39645508 2.61410156 -7.67578125 2.140625 C-6.75599487 1.5223584 -6.75599487 1.5223584 -5.81762695 0.89160156 C-4 0 -4 0 0 0 Z " fill="#689BE7" transform="translate(73,1)"/>
<path d="M0 0 C89.59459459 0 89.59459459 0 105 15 C113.8014576 24.65002863 116.20658785 34.72098155 116.3125 47.4375 C116.35600586 49.12649414 116.35600586 49.12649414 116.40039062 50.84960938 C116.48579203 62.27368932 113.9766451 72.53051871 106 81 C102.00716959 84.89085243 97.94828041 88.37122603 93 91 C93.60972017 95.44104865 95.35989854 99.01053245 97.45703125 102.91015625 C97.97338387 103.88413612 97.97338387 103.88413612 98.50016785 104.87779236 C99.22744544 106.24519507 99.95800782 107.61085519 100.69165039 108.97485352 C101.8079907 111.05410117 102.90945378 113.14075073 104.00976562 115.22851562 C104.72046956 116.56036825 105.43202998 117.89176428 106.14453125 119.22265625 C106.47072952 119.84253922 106.7969278 120.46242218 107.13301086 121.10108948 C109.04625197 124.62909817 110.74634119 127.61544345 114 130 C116.97 130.66 119.94 131.32 123 132 C123 139.92 123 147.84 123 156 C113.48051293 160.07978017 102.2870523 160.82290268 92.3046875 157.2265625 C79.92939352 150.64038909 74.83782193 138.83814497 69.125 126.8125 C68.68679932 125.90371094 68.24859863 124.99492187 67.79711914 124.05859375 C65.47967306 119.23204926 63.29668315 114.42959376 61.4699707 109.39428711 C60.02109909 106.38519764 57.9334474 103.72316535 56 101 C50.39 100.67 44.78 100.34 39 100 C39 118.48 39 136.96 39 156 C26.13 156 13.26 156 0 156 C0 104.52 0 53.04 0 0 Z " fill="#FBFDFE" transform="translate(161,63)"/>
<path d="M0 0 C33.89795918 0 33.89795918 0 42.125 8.0625 C45.13333107 12.92703534 44.70272206 18.50807436 44 24 C42.47859469 28.25993488 40.46831311 31.09109223 37 34 C36.34 34 35.68 34 35 34 C36.06871996 36.29954913 37.15378212 38.58860271 38.25 40.875 C38.55035156 41.52597656 38.85070312 42.17695313 39.16015625 42.84765625 C40.54354777 45.70274088 41.53311777 47.69799576 44.234375 49.4453125 C44.81703125 49.62835938 45.3996875 49.81140625 46 50 C46.02689216 51.47906892 46.04634621 52.95827483 46.0625 54.4375 C46.07410156 55.26121094 46.08570313 56.08492188 46.09765625 56.93359375 C46 59 46 59 45 60 C42.92578125 60.2734375 42.92578125 60.2734375 40.3125 60.375 C39.46300781 60.42398438 38.61351562 60.47296875 37.73828125 60.5234375 C33.88204306 59.78629639 31.5058163 57.9062732 29 55 C27.04377908 51.66501498 25.61221742 48.11052067 24.16601562 44.53125 C23.85470703 43.83515625 23.54339844 43.1390625 23.22265625 42.421875 C22.83219116 41.47199707 22.83219116 41.47199707 22.43383789 40.50292969 C20.52921486 38.19625689 20.52921486 38.19625689 14 38 C14 44.93 14 51.86 14 59 C9.38 59 4.76 59 0 59 C0 39.53 0 20.06 0 0 Z " fill="#F8FBFD" transform="translate(144,309)"/>
<path d="M0 0 C5.6925 -0.12375 5.6925 -0.12375 11.5 -0.25 C12.68013672 -0.28641602 13.86027344 -0.32283203 15.07617188 -0.36035156 C21.88901615 -0.43165412 26.22098612 0.32610255 32 4 C37.69061375 9.99011974 38.36340467 14.79560099 38.375 22.75 C38.39949219 23.61882812 38.42398438 24.48765625 38.44921875 25.3828125 C38.4764528 31.42877179 37.421178 35.95594578 34 41 C29.28823777 45.59094781 24.78782813 47.26511046 18.26171875 47.1953125 C16.81865356 47.18781982 16.81865356 47.18781982 15.34643555 47.18017578 C14.13898682 47.16196777 12.93153809 47.14375977 11.6875 47.125 C7.830625 47.08375 3.97375 47.0425 0 47 C0 31.49 0 15.98 0 0 Z " fill="#1C6BFA" transform="translate(200,90)"/>
<path d="M0 0 C4.95 0 9.9 0 15 0 C17.67399693 7.58041333 19.65154809 15.25841897 21.5625 23.0625 C21.86607422 24.29033203 22.16964844 25.51816406 22.48242188 26.78320312 C23.06538783 29.14173858 23.64700459 31.50060806 24.22705078 33.85986328 C25.14171049 37.57570446 26.06860549 41.28832338 27 45 C27.19110352 44.20529297 27.38220703 43.41058594 27.57910156 42.59179688 C30.99818021 28.38060839 34.42120845 14.17201455 38 0 C42.95 0 47.9 0 53 0 C51.58375597 7.49573062 49.81256747 14.82738532 47.8125 22.1875 C47.35991821 23.86271729 47.35991821 23.86271729 46.89819336 25.57177734 C43.83755965 36.78803925 40.46396634 47.90267317 37 59 C30.4 59 23.8 59 17 59 C13.11665124 47.72881702 9.64393234 36.43517451 6.48193359 24.94116211 C4.66267219 18.33138352 2.75171767 11.77724171 0.62890625 5.2578125 C0 3 0 3 0 0 Z " fill="#F6F9FD" transform="translate(193,309)"/>
<path d="M0 0 C15.18 0 30.36 0 46 0 C46 3.63 46 7.26 46 11 C40.72 11 35.44 11 30 11 C30 26.84 30 42.68 30 59 C25.05 59 20.1 59 15 59 C15 43.16 15 27.32 15 11 C10.05 11 5.1 11 0 11 C0 7.37 0 3.74 0 0 Z " fill="#F3F9FC" transform="translate(251,309)"/>
<path d="M0 0 C0.33 0 0.66 0 1 0 C1.81321734 31.74744511 2.19103912 63.48178185 2.30391693 95.2389679 C2.32405745 100.68675035 2.34871963 106.13450943 2.3729248 111.58227539 C2.44048696 127.3464988 2.50110112 143.11075138 2.5625 158.875 C2.706875 194.22625 2.85125 229.5775 3 266 C-92.7 265.67 -188.4 265.34 -287 265 C-287 264.67 -287 264.34 -287 264 C-192.29 264 -97.58 264 0 264 C0 176.88 0 89.76 0 0 Z " fill="#0C43AE" transform="translate(361,17)"/>
<path d="M0 0 C8.91 0 17.82 0 27 0 C27 111.54 27 223.08 27 338 C26.34 338 25.68 338 25 338 C24.67 227.12 24.34 116.24 24 2 C16.08 1.67 8.16 1.34 0 1 C0 0.67 0 0.34 0 0 Z " fill="#254886" transform="translate(362,62)"/>
<path d="M0 0 C0.33 0 0.66 0 1 0 C1.33 91.74 1.66 183.48 2 278 C2.66 278 3.32 278 4 278 C4 277.01 4 276.02 4 275 C6.31 274.67 8.62 274.34 11 274 C11 274.66 11 275.32 11 276 C7.37 277.98 3.74 279.96 0 282 C0 188.94 0 95.88 0 0 Z " fill="#7199D4" transform="translate(12,37)"/>
<path d="M0 0 C9.05660377 -0.60377358 9.05660377 -0.60377358 13.125 2 C15.70095914 6.12153463 15.53503474 8.18468737 15 13 C13.99124788 15.81009519 13.66604583 16.66697708 11 18 C7.32984725 18.1377685 3.67388652 18.04271961 0 18 C0 12.06 0 6.12 0 0 Z " fill="#104090" transform="translate(158,319)"/>
<path d="M0 0 C0.33 0 0.66 0 1 0 C1 28.71 1 57.42 1 87 C1.66 87 2.32 87 3 87 C3.33 88.98 3.66 90.96 4 93 C0.28624465 90.29908701 -0.22342981 86.27183387 -1 82 C-1.24905917 79.21848534 -1.26449351 76.4634056 -1.24291992 73.67211914 C-1.24481827 72.88251801 -1.24671661 72.09291687 -1.24867249 71.27938843 C-1.25234501 68.6978732 -1.24173213 66.11664597 -1.23046875 63.53515625 C-1.2292755 61.7329461 -1.22882409 59.93073531 -1.2290802 58.12852478 C-1.22752178 54.36713727 -1.21927687 50.6058458 -1.20581055 46.84448242 C-1.18873585 42.01326224 -1.18499898 37.18214653 -1.18575573 32.3508997 C-1.1854846 28.63729345 -1.18001406 24.92371023 -1.17275429 21.21011162 C-1.16956505 19.42743542 -1.16759962 17.64475661 -1.16686058 15.86207771 C-1.16470455 13.38204563 -1.15597898 10.90212703 -1.14526367 8.42211914 C-1.14571686 7.68087296 -1.14617004 6.93962677 -1.14663696 6.17591858 C-1.11448291 1.11448291 -1.11448291 1.11448291 0 0 Z " fill="#0B1B42" transform="translate(45,299)"/>
<path d="M0 0 C0.80566406 0.00322266 1.61132812 0.00644531 2.44140625 0.00976562 C3.70404297 0.02233398 3.70404297 0.02233398 4.9921875 0.03515625 C5.84167969 0.03966797 6.69117188 0.04417969 7.56640625 0.04882812 C9.66669659 0.06062751 11.7669508 0.07856319 13.8671875 0.09765625 C13.8671875 1.08765625 13.8671875 2.07765625 13.8671875 3.09765625 C7.5971875 2.76765625 1.3271875 2.43765625 -5.1328125 2.09765625 C-5.1328125 20.24765625 -5.1328125 38.39765625 -5.1328125 57.09765625 C-5.4628125 57.09765625 -5.7928125 57.09765625 -6.1328125 57.09765625 C-6.1328125 38.61765625 -6.1328125 20.13765625 -6.1328125 1.09765625 C-3.8362755 -0.05061225 -2.54968083 -0.0179555 0 0 Z " fill="#ECFEFF" transform="translate(205.1328125,160.90234375)"/>
<path d="M0 0 C2.94093845 2.67358041 4.76856538 5.163952 5.2746582 9.17895508 C5.30306288 11.72396136 5.32172838 14.2673125 5.3125 16.8125 C5.32861328 17.68970703 5.34472656 18.56691406 5.36132812 19.47070312 C5.36553174 25.09093894 4.58556777 28.99941643 2 34 C1.67 34 1.34 34 1 34 C1.165 33.01 1.33 32.02 1.5 31 C2.76311877 20.71198917 2.70226714 10.03699224 0 0 Z " fill="#3B7AE7" transform="translate(233,96)"/>
<path d="M0 0 C3.3 0 6.6 0 10 0 C10 0.66 10 1.32 10 2 C7.36 2 4.72 2 2 2 C2 6.95 2 11.9 2 17 C4.31 17 6.62 17 9 17 C9 17.33 9 17.66 9 18 C6.03 18 3.06 18 0 18 C0 12.06 0 6.12 0 0 Z " fill="#395893" transform="translate(158,319)"/>
<path d="M0 0 C1.93726781 2.90590172 2.72785777 5.0150767 3.69140625 8.33203125 C3.99626953 9.37810547 4.30113281 10.42417969 4.61523438 11.50195312 C4.92783203 12.59443359 5.24042969 13.68691406 5.5625 14.8125 C5.87896484 15.89337891 6.19542969 16.97425781 6.52148438 18.08789062 C7.95699218 23.05273608 9.22036125 27.88388662 10 33 C9.34 33 8.68 33 8 33 C7.73445312 32.03578125 7.46890625 31.0715625 7.1953125 30.078125 C6.84210938 28.81484375 6.48890625 27.5515625 6.125 26.25 C5.77695313 24.99703125 5.42890625 23.7440625 5.0703125 22.453125 C4.1545124 19.16212633 4.1545124 19.16212633 2.9375 16.890625 C1.7355535 14.46669957 1.33565727 12.16157535 0.875 9.5 C0.70742187 8.5615625 0.53984375 7.623125 0.3671875 6.65625 C0 4 0 4 0 0 Z " fill="#335590" transform="translate(197,325)"/>
<path d="M0 0 C0.99 0 1.98 0 3 0 C2.03644647 9.41002278 2.03644647 9.41002278 1 14 C0.34 13.67 -0.32 13.34 -1 13 C-2.17611086 8.00152882 -1.96237913 4.73279673 0 0 Z " fill="#1D4083" transform="translate(220,341)"/>
<path d="M0 0 C5.94 0 11.88 0 18 0 C18 0.99 18 1.98 18 3 C12.06 2.67 6.12 2.34 0 2 C0 1.34 0 0.68 0 0 Z " fill="#DBF2FE" transform="translate(201,161)"/>
<path d="M0 0 C1.39456452 0.00667256 2.78911118 0.01863093 4.18359375 0.03515625 C4.89451172 0.03966797 5.60542969 0.04417969 6.33789062 0.04882812 C8.09899388 0.06064761 9.86005411 0.07858362 11.62109375 0.09765625 C11.95109375 0.75765625 12.28109375 1.41765625 12.62109375 2.09765625 C7.67109375 2.09765625 2.72109375 2.09765625 -2.37890625 2.09765625 C-2.70890625 3.41765625 -3.03890625 4.73765625 -3.37890625 6.09765625 C-3.76109392 4.44150968 -4.09285727 2.77308601 -4.37890625 1.09765625 C-3.37890625 0.09765625 -3.37890625 0.09765625 0 0 Z " fill="#183F80" transform="translate(233.37890625,306.90234375)"/>
<path d="M0 0 C0.66 1.32 1.32 2.64 2 4 C2.66 4 3.32 4 4 4 C4 3.01 4 2.02 4 1 C7.465 0.505 7.465 0.505 11 0 C11 0.66 11 1.32 11 2 C7.37 3.98 3.74 5.96 0 8 C0 5.36 0 2.72 0 0 Z " fill="#5E7FB4" transform="translate(12,311)"/>
<path d="M0 0 C0.33 0 0.66 0 1 0 C1 3.63 1 7.26 1 11 C0.67 9.68 0.34 8.36 0 7 C-0.66 7 -1.32 7 -2 7 C-2.66 8.32 -3.32 9.64 -4 11 C-4.33 10.01 -4.66 9.02 -5 8 C-4.34 7.01 -3.68 6.02 -3 5 C-2.34 5 -1.68 5 -1 5 C-0.67 3.35 -0.34 1.7 0 0 Z " fill="#0E3580" transform="translate(249,309)"/>
<path d="M0 0 C6.00852226 -0.20719042 10.52578585 0.26289292 16 3 C16 3.66 16 4.32 16 5 C10.72 3.68 5.44 2.36 0 1 C0 0.67 0 0.34 0 0 Z " fill="#407AE5" transform="translate(236,64)"/>
<path d="M0 0 C0.33 0.66 0.66 1.32 1 2 C-0.73747829 5.65784902 -2.17186722 7.60795172 -6 9 C-7.3242287 9.36784131 -8.65613912 9.71202981 -10 10 C-6.66666667 6.66666667 -3.33333333 3.33333333 0 0 Z " fill="#2D6CE5" transform="translate(269,141)"/>
<path d="M0 0 C0.57234375 0.21527344 1.1446875 0.43054687 1.734375 0.65234375 C0.744375 0.98234375 -0.245625 1.31234375 -1.265625 1.65234375 C-1.265625 2.31234375 -1.265625 2.97234375 -1.265625 3.65234375 C-2.915625 3.65234375 -4.565625 3.65234375 -6.265625 3.65234375 C-6.265625 4.31234375 -6.265625 4.97234375 -6.265625 5.65234375 C-7.585625 5.32234375 -8.905625 4.99234375 -10.265625 4.65234375 C-9.02618224 3.78292881 -7.77355441 2.93228918 -6.515625 2.08984375 C-5.81953125 1.61417969 -5.1234375 1.13851563 -4.40625 0.6484375 C-2.265625 -0.34765625 -2.265625 -0.34765625 0 0 Z " fill="#6085B8" transform="translate(48.265625,15.34765625)"/>
<path d="M0 0 C0.99 0.33 1.98 0.66 3 1 C3 1.66 3 2.32 3 3 C3.66 3 4.32 3 5 3 C5 5.64 5 8.28 5 11 C3.13448574 7.41247258 1.57464072 3.72187807 0 0 Z " fill="#E3F6FE" transform="translate(234,96)"/>
<path d="M0 0 C0.33 0.99 0.66 1.98 1 3 C-0.9375 5.6875 -0.9375 5.6875 -3 8 C-3.33 6.35 -3.66 4.7 -4 3 C-2.68 2.01 -1.36 1.02 0 0 Z " fill="#2D6DE6" transform="translate(257,151)"/>
</svg>
